<svg width="553" height="615" viewBox="0 0 553 615" version="1.1" xmlns="http://www.w3.org/2000/svg" xmlns:xlink="http://www.w3.org/1999/xlink" xmlns:figma="http://www.figma.com/figma/ns">
<title>g3658</title>
<desc>Created using Figma</desc>
<g id="Canvas" transform="translate(984 604)" figma:type="canvas">
<g id="g3658" style="mix-blend-mode:normal;" figma:type="frame">
<g id="g3634" style="mix-blend-mode:normal;" figma:type="frame">
<g id="path3590" style="mix-blend-mode:normal;" figma:type="vector">
<use xlink:href="#path0_fill" transform="matrix(0 1.5 -1.5 0 -433.217 -480.96)" fill="#404040" style="mix-blend-mode:normal;"/>
<use xlink:href="#path1_stroke" transform="matrix(0 1.5 -1.5 0 -433.217 -480.96)" fill="#404040" style="mix-blend-mode:normal;"/>
</g>
<g id="g3592" style="mix-blend-mode:normal;" figma:type="frame">
<g id="path3594" style="mix-blend-mode:normal;" figma:type="vector">
<use xlink:href="#path2_fill" transform="matrix(0.497583 0.286647 -0.497583 0.286647 -712.33 -613.737)" fill="#FFFFFF" style="mix-blend-mode:normal;"/>
<use xlink:href="#path3_stroke" transform="matrix(0.497583 0.286647 -0.497583 0.286647 -712.33 -613.737)" style="mix-blend-mode:normal;"/>
</g>
<g id="circle3602" style="mix-blend-mode:normal;" figma:type="vector">
<use xlink:href="#path4_fill" transform="matrix(0.497583 0.286647 -0.497583 0.286647 -712.33 -488.825)" fill="#404040" style="mix-blend-mode:normal;"/>
<use xlink:href="#path5_stroke" transform="matrix(0.497583 0.286647 -0.497583 0.286647 -712.33 -488.825)" style="mix-blend-mode:normal;"/>
</g>
</g>
<g id="g3606" style="mix-blend-mode:normal;" figma:type="frame">
<g id="path3608" style="mix-blend-mode:normal;" figma:type="vector">
<use xlink:href="#path2_fill" transform="matrix(-0.000548081 -0.574242 0.497034 0.287596 -980.863 -136.216)" fill="#FFFFFF" style="mix-blend-mode:normal;"/>
<use xlink:href="#path3_stroke" transform="matrix(-0.000548081 -0.574242 0.497034 0.287596 -980.863 -136.216)" style="mix-blend-mode:normal;"/>
</g>
<g id="circle3610" style="mix-blend-mode:normal;" figma:type="vector">
<use xlink:href="#path6_fill" transform="matrix(-0.000548081 -0.574242 0.497034 0.287596 -792.339 -59.5077)" fill="#404040" style="mix-blend-mode:normal;"/>
<use xlink:href="#path7_stroke" transform="matrix(-0.000548081 -0.574242 0.497034 0.287596 -792.339 -59.5077)" style="mix-blend-mode:normal;"/>
</g>
<g id="circle3614" style="mix-blend-mode:normal;" figma:type="vector">
<use xlink:href="#path8_fill" transform="matrix(-0.000548081 -0.574242 0.497034 0.287596 -953.032 -337.836)" fill="#404040" style="mix-blend-mode:normal;"/>
<use xlink:href="#path9_stroke" transform="matrix(-0.000548081 -0.574242 0.497034 0.287596 -953.032 -337.836)" style="mix-blend-mode:normal;"/>
</g>
</g>
<g id="g3620" style="mix-blend-mode:normal;" figma:type="frame">
<g id="path3622" style="mix-blend-mode:normal;" figma:type="vector">
<use xlink:href="#path2_fill" transform="matrix(-0.497034 0.287596 0.000548081 -0.574242 -433.928 -142.509)" fill="#FFFFFF" style="mix-blend-mode:normal;"/>
<use xlink:href="#path3_stroke" transform="matrix(-0.497034 0.287596 0.000548081 -0.574242 -433.928 -142.509)" style="mix-blend-mode:normal;"/>
</g>
<g id="circle3624" style="mix-blend-mode:normal;" figma:type="vector">
<use xlink:href="#path6_fill" transform="matrix(-0.497034 0.287596 0.000548081 -0.574242 -461.759 -344.13)" fill="#404040" style="mix-blend-mode:normal;"/>
<use xlink:href="#path7_stroke" transform="matrix(-0.497034 0.287596 0.000548081 -0.574242 -461.759 -344.13)" style="mix-blend-mode:normal;"/>
</g>
<g id="circle3628" style="mix-blend-mode:normal;" figma:type="vector">
<use xlink:href="#path8_fill" transform="matrix(-0.497034 0.287596 0.000548081 -0.574242 -622.452 -65.8011)" fill="#404040" style="mix-blend-mode:normal;"/>
<use xlink:href="#path9_stroke" transform="matrix(-0.497034 0.287596 0.000548081 -0.574242 -622.452 -65.8011)" style="mix-blend-mode:normal;"/>
</g>
<g id="circle3630" style="mix-blend-mode:normal;" figma:type="vector">
<use xlink:href="#path4_fill" transform="matrix(-0.497034 0.287596 0.000548081 -0.574242 -542.105 -204.965)" fill="#404040" style="mix-blend-mode:normal;"/>
<use xlink:href="#path5_stroke" transform="matrix(-0.497034 0.287596 0.000548081 -0.574242 -542.105 -204.965)" style="mix-blend-mode:normal;"/>
</g>
</g>
</g>
</g>
</g>
<defs>
<path id="path0_fill" fill-rule="evenodd" d="M 2.50001 27.5C 10 15 27.5 5.09766e-06 40 5.09766e-06L 318.682 160.827C 322.799 167.485 331.089 181.906 323.979 202.397L 50 365C 42.5 367.5 10 365 1.30469e-05 340L 2.50001 27.5Z"/>
<path id="path1_stroke" d="M 2.50001 27.5L 1.64252 26.9855C 1.55067 27.1386 1.50147 27.3135 1.50005 27.492L 2.50001 27.5ZM 40 5.09766e-06L 40.4998 -0.866115C 40.3479 -0.953822 40.1755 -0.999995 40 -0.999995L 40 5.09766e-06ZM 318.682 160.827L 319.533 160.301C 319.446 160.16 319.326 160.043 319.182 159.961L 318.682 160.827ZM 323.979 202.397L 324.489 203.257C 324.692 203.137 324.846 202.948 324.924 202.725L 323.979 202.397ZM 50 365L 50.3162 365.949C 50.3839 365.926 50.449 365.896 50.5104 365.86L 50 365ZM 1.30469e-05 340L -0.999955 339.992C -1.00099 340.122 -0.976711 340.251 -0.928464 340.371L 1.30469e-05 340ZM 3.35751 28.0145C 7.05264 21.8465 13.1783 15.1098 19.9865 9.85379C 26.8118 4.57963 34.0899 1.00001 40 1.00001L 40 -0.999995C 33.4102 -0.999995 25.6882 2.92038 18.7636 8.27122C 11.8217 13.6402 5.44739 20.6535 1.64252 26.9855L 3.35751 28.0145ZM 39.5002 0.866125L 318.183 161.693L 319.182 159.961L 40.4998 -0.866115L 39.5002 0.866125ZM 317.832 161.353C 321.903 167.937 329.992 182.016 323.034 202.069L 324.924 202.725C 332.186 181.795 323.695 167.033 319.533 160.301L 317.832 161.353ZM 323.469 201.537L 49.4896 364.14L 50.5104 365.86L 324.489 203.257L 323.469 201.537ZM 49.6838 364.051C 47.991 364.616 44.7059 364.937 40.4938 364.666C 36.2875 364.397 31.336 363.561 26.2537 361.864C 16.1089 358.482 5.7821 351.763 0.92849 339.629L -0.928464 340.371C 4.21793 353.237 15.1411 360.268 25.6213 363.761C 30.8515 365.501 36.0563 366.384 40.3656 366.662C 44.6691 366.938 48.259 366.634 50.3162 365.949L 49.6838 364.051ZM 0.999981 340.008L 3.49998 27.508L 1.50005 27.492L -0.999955 339.992L 0.999981 340.008Z"/>
<path id="path2_fill" d="M 67.9595 550C 30.5806 550 0 519.419 0 482.04L 0 67.9595C 0 30.582 30.5806 0 67.9595 0L 482.04 0C 519.418 0 550 30.582 550 67.9595L 550 482.04C 550 519.419 519.418 550 482.04 550L 67.9595 550Z"/>
<path id="path3_stroke" d="M 67.9595 546.5C 32.5136 546.5 3.5 517.486 3.5 482.04L -3.5 482.04C -3.5 521.352 28.6475 553.5 67.9595 553.5L 67.9595 546.5ZM 3.5 482.04L 3.5 67.9595L -3.5 67.9595L -3.5 482.04L 3.5 482.04ZM 3.5 67.9595C 3.5 32.515 32.5136 3.5 67.9595 3.5L 67.9595 -3.5C 28.6475 -3.5 -3.5 28.6491 -3.5 67.9595L 3.5 67.9595ZM 67.9595 3.5L 482.04 3.5L 482.04 -3.5L 67.9595 -3.5L 67.9595 3.5ZM 482.04 3.5C 517.485 3.5 546.5 32.515 546.5 67.9595L 553.5 67.9595C 553.5 28.649 521.351 -3.5 482.04 -3.5L 482.04 3.5ZM 546.5 67.9595L 546.5 482.04L 553.5 482.04L 553.5 67.9595L 546.5 67.9595ZM 546.5 482.04C 546.5 517.486 517.485 546.5 482.04 546.5L 482.04 553.5C 521.351 553.5 553.5 521.352 553.5 482.04L 546.5 482.04ZM 482.04 546.5L 67.9595 546.5L 67.9595 553.5L 482.04 553.5L 482.04 546.5Z"/>
<path id="path4_fill" d="M 57.1152 114.23C 88.6591 114.23 114.23 88.6591 114.23 57.1152C 114.23 25.5714 88.6591 0 57.1152 0C 25.5714 0 0 25.5714 0 57.1152C 0 88.6591 25.5714 114.23 57.1152 114.23Z"/>
<path id="path5_stroke" d="M 111.73 57.1152C 111.73 87.2784 87.2784 111.73 57.1152 111.73L 57.1152 116.73C 90.0398 116.73 116.73 90.0398 116.73 57.1152L 111.73 57.1152ZM 57.1152 111.73C 26.9521 111.73 2.5 87.2784 2.5 57.1152L -2.5 57.1152C -2.5 90.0398 24.1906 116.73 57.1152 116.73L 57.1152 111.73ZM 2.5 57.1152C 2.5 26.9521 26.9521 2.5 57.1152 2.5L 57.1152 -2.5C 24.1906 -2.5 -2.5 24.1906 -2.5 57.1152L 2.5 57.1152ZM 57.1152 2.5C 87.2784 2.5 111.73 26.9521 111.73 57.1152L 116.73 57.1152C 116.73 24.1906 90.0398 -2.5 57.1152 -2.5L 57.1152 2.5Z"/>
<path id="path6_fill" d="M 57.1152 114.23C 88.6591 114.23 114.23 88.6591 114.23 57.1152C 114.23 25.5714 88.6591 0 57.1152 0C 25.5714 0 0 25.5714 0 57.1152C 0 88.6591 25.5714 114.23 57.1152 114.23Z"/>
<path id="path7_stroke" d="M 111.73 57.1152C 111.73 87.2784 87.2784 111.73 57.1152 111.73L 57.1152 116.73C 90.0398 116.73 116.73 90.0398 116.73 57.1152L 111.73 57.1152ZM 57.1152 111.73C 26.9521 111.73 2.5 87.2784 2.5 57.1152L -2.5 57.1152C -2.5 90.0398 24.1906 116.73 57.1152 116.73L 57.1152 111.73ZM 2.5 57.1152C 2.5 26.9521 26.9521 2.5 57.1152 2.5L 57.1152 -2.5C 24.1906 -2.5 -2.5 24.1906 -2.5 57.1152L 2.5 57.1152ZM 57.1152 2.5C 87.2784 2.5 111.73 26.9521 111.73 57.1152L 116.73 57.1152C 116.73 24.1906 90.0398 -2.5 57.1152 -2.5L 57.1152 2.5Z"/>
<path id="path8_fill" d="M 57.1147 114.229C 88.6584 114.229 114.229 88.6583 114.229 57.1147C 114.229 25.5711 88.6584 0 57.1147 0C 25.5711 0 4.4375e-06 25.5711 4.4375e-06 57.1147C 4.4375e-06 88.6583 25.5711 114.229 57.1147 114.229Z"/>
<path id="path9_stroke" d="M 111.729 57.1147C 111.729 87.2776 87.2776 111.729 57.1147 111.729L 57.1147 116.729C 90.0391 116.729 116.729 90.0391 116.729 57.1147L 111.729 57.1147ZM 57.1147 111.729C 26.9519 111.729 2.5 87.2776 2.5 57.1147L -2.5 57.1147C -2.5 90.0391 24.1904 116.729 57.1147 116.729L 57.1147 111.729ZM 2.5 57.1147C 2.5 26.9519 26.9519 2.5 57.1147 2.5L 57.1147 -2.5C 24.1904 -2.5 -2.5 24.1904 -2.5 57.1147L 2.5 57.1147ZM 57.1147 2.5C 87.2776 2.5 111.729 26.9519 111.729 57.1147L 116.729 57.1147C 116.729 24.1904 90.0391 -2.5 57.1147 -2.5L 57.1147 2.5Z"/>
</defs>
</svg>
